<svg width="40" height="48" viewBox="0 0 40 48" fill="none" xmlns="http://www.w3.org/2000/svg">
<path d="M38.6364 19.8182C38.6364 34.4545 19.8182 47 19.8182 47C19.8182 47 1 34.4545 1 19.8182C1 14.8273 2.98262 10.0408 6.51172 6.51172C10.0408 2.98262 14.8273 1 19.8182 1C24.8091 1 29.5955 2.98262 33.1246 6.51172C36.6537 10.0408 38.6364 14.8273 38.6364 19.8182Z" stroke="white" stroke-width="2" stroke-linecap="round" stroke-linejoin="round"/>
<path d="M19.8181 26.0909C23.2825 26.0909 26.0909 23.2825 26.0909 19.8181C26.0909 16.3538 23.2825 13.5454 19.8181 13.5454C16.3538 13.5454 13.5454 16.3538 13.5454 19.8181C13.5454 23.2825 16.3538 26.0909 19.8181 26.0909Z" stroke="white" stroke-width="2" stroke-linecap="round" stroke-linejoin="round"/>
</svg>
