<svg width="183" height="45" viewBox="0 0 183 45" fill="none" xmlns="http://www.w3.org/2000/svg">
<path d="M68.4715 16.03C68.4715 16.7783 68.3155 17.4289 68.0034 17.982C67.6913 18.5351 67.2643 18.9987 66.7223 19.3729C66.1803 19.7307 65.548 20.0073 64.8253 20.2025C64.1027 20.3814 63.339 20.4709 62.5342 20.4709H54.0101V3.1464H63.7413C64.349 3.1464 64.8992 3.27654 65.392 3.53681C65.8847 3.79709 66.3035 4.13869 66.6484 4.56164C66.9933 4.96832 67.2561 5.44007 67.4368 5.97689C67.6339 6.49743 67.7324 7.03425 67.7324 7.58733C67.7324 8.41695 67.5189 9.19778 67.0919 9.9298C66.6813 10.6618 66.0571 11.2149 65.2195 11.589C66.2214 11.8818 67.0097 12.4024 67.5846 13.1507C68.1759 13.899 68.4715 14.8587 68.4715 16.03ZM64.3572 15.2247C64.3572 14.6879 64.2012 14.2324 63.8892 13.8583C63.5771 13.4842 63.1829 13.2971 62.7066 13.2971H58.0504V17.0792H62.5342C63.0597 17.0792 63.495 16.9084 63.8399 16.5668C64.1848 16.2252 64.3572 15.7778 64.3572 15.2247ZM58.0504 6.5625V10.1494H62.0168C62.4603 10.1494 62.8544 10.003 63.1993 9.71019C63.5443 9.41738 63.7167 8.9619 63.7167 8.34375C63.7167 7.7744 63.5607 7.33519 63.2486 7.02611C62.953 6.71704 62.5917 6.5625 62.1646 6.5625H58.0504ZM70.8512 20.4709V3.1464H78.7348C79.556 3.1464 80.3115 3.3172 81.0014 3.65881C81.7076 4.00042 82.3153 4.44777 82.8244 5.00085C83.3336 5.55393 83.7278 6.18022 84.007 6.87971C84.3026 7.5792 84.4504 8.28681 84.4504 9.00257C84.4504 9.53938 84.3847 10.0599 84.2533 10.5642C84.1219 11.0522 83.9331 11.5158 83.6867 11.9551C83.4403 12.3943 83.1365 12.7928 82.7752 13.1507C82.4302 13.4923 82.0361 13.7851 81.5926 14.0291L85.4359 20.4709H80.8782L77.5276 14.8831H74.8916V20.4709H70.8512ZM74.8916 11.3938H78.587C79.0633 11.3938 79.4739 11.1742 79.8188 10.735C80.1637 10.2795 80.3362 9.70205 80.3362 9.00257C80.3362 8.28681 80.1391 7.71746 79.7449 7.29452C79.3507 6.87157 78.9237 6.6601 78.4638 6.6601H74.8916V11.3938ZM95.0174 20.6173C93.7199 20.6173 92.5373 20.3652 91.4698 19.8609C90.4022 19.3566 89.4907 18.6978 88.7352 17.8844C87.9797 17.0548 87.3884 16.1113 86.9614 15.0539C86.5508 13.9966 86.3455 12.9067 86.3455 11.7842C86.3455 10.6455 86.559 9.54752 86.986 8.49016C87.4294 7.43279 88.0371 6.50557 88.8091 5.70848C89.5974 4.89512 90.5254 4.25257 91.593 3.78082C92.6605 3.29281 93.8266 3.0488 95.0913 3.0488C96.3888 3.0488 97.5713 3.30094 98.6389 3.80522C99.7061 4.3095 100.618 4.97645 101.373 5.80607C102.129 6.6357 102.712 7.57919 103.122 8.63656C103.533 9.69392 103.738 10.7675 103.738 11.8574C103.738 12.9961 103.516 14.0942 103.073 15.1515C102.646 16.2089 102.047 17.1443 101.275 17.9576C100.503 18.7547 99.5829 19.3973 98.5157 19.8853C97.4482 20.3733 96.282 20.6173 95.0174 20.6173ZM90.4597 11.833C90.4597 12.5 90.5582 13.1507 90.7553 13.7851C90.9524 14.4033 91.2398 14.9563 91.6176 15.4443C92.0118 15.9324 92.4963 16.3228 93.0711 16.6156C93.646 16.9084 94.3029 17.0548 95.042 17.0548C95.814 17.0548 96.4873 16.9003 97.0622 16.5912C97.637 16.2821 98.1133 15.8836 98.4911 15.3955C98.8688 14.8913 99.1481 14.33 99.3287 13.7119C99.5258 13.0775 99.6239 12.4349 99.6239 11.7842C99.6239 11.1173 99.5258 10.4747 99.3287 9.85659C99.1316 9.22217 98.836 8.66909 98.4418 8.19735C98.0476 7.70933 97.5631 7.32706 96.9883 7.05052C96.4299 6.75771 95.7811 6.6113 95.042 6.6113C94.2701 6.6113 93.5967 6.76583 93.0219 7.07491C92.4634 7.36772 91.9871 7.75813 91.593 8.24614C91.2152 8.73416 90.9278 9.29538 90.7307 9.9298C90.55 10.5479 90.4597 11.1824 90.4597 11.833ZM118.584 6.6601H113.262V20.4709H109.222V6.6601H103.876V3.1464H118.584V6.6601ZM135.609 3.1464V20.4709H131.569V13.3703H124.597V20.4709H120.556V3.1464H124.597V9.85659H131.569V3.1464H135.609ZM151.255 16.9572V20.4709H138.962V3.1464H151.033V6.6601H143.002V10.0274H149.9V13.2727H143.002V16.9572H151.255ZM153.71 20.4709V3.1464H161.593C162.414 3.1464 163.17 3.3172 163.86 3.65881C164.566 4.00042 165.174 4.44777 165.683 5.00085C166.192 5.55393 166.586 6.18022 166.865 6.87971C167.161 7.5792 167.309 8.28681 167.309 9.00257C167.309 9.53938 167.243 10.0599 167.112 10.5642C166.98 11.0522 166.791 11.5158 166.545 11.9551C166.299 12.3943 165.995 12.7928 165.634 13.1507C165.289 13.4923 164.894 13.7851 164.451 14.0291L168.294 20.4709H163.737L160.386 14.8831H157.75V20.4709H153.71ZM157.75 11.3938H161.445C161.922 11.3938 162.332 11.1742 162.677 10.735C163.022 10.2795 163.195 9.70205 163.195 9.00257C163.195 8.28681 162.997 7.71746 162.603 7.29452C162.209 6.87157 161.782 6.6601 161.322 6.6601H157.75V11.3938ZM180.709 8.22175C180.66 8.15668 180.487 8.03468 180.191 7.85574C179.896 7.6768 179.526 7.48973 179.083 7.29452C178.639 7.09931 178.155 6.92851 177.629 6.78211C177.104 6.6357 176.578 6.5625 176.053 6.5625C174.607 6.5625 173.885 7.04238 173.885 8.00214C173.885 8.29495 173.958 8.53895 174.106 8.73416C174.271 8.92937 174.5 9.1083 174.796 9.27098C175.108 9.41738 175.494 9.55565 175.954 9.68578C176.414 9.81592 176.948 9.96232 177.555 10.125C178.393 10.3527 179.149 10.6049 179.822 10.8814C180.495 11.1417 181.062 11.4752 181.522 11.8819C181.998 12.2723 182.359 12.7521 182.606 13.3215C182.869 13.8908 183 14.5741 183 15.3711C183 16.3472 182.811 17.1768 182.433 17.86C182.072 18.527 181.587 19.0719 180.98 19.4949C180.372 19.9015 179.674 20.2025 178.886 20.3977C178.097 20.5766 177.284 20.6661 176.447 20.6661C175.806 20.6661 175.149 20.6173 174.476 20.5197C173.802 20.4221 173.145 20.2838 172.505 20.1049C171.864 19.9097 171.24 19.6819 170.633 19.4217C170.041 19.1614 169.491 18.8604 168.982 18.5188L170.756 15.0295C170.821 15.1109 171.035 15.2654 171.396 15.4931C171.758 15.7209 172.201 15.9486 172.727 16.1764C173.269 16.4041 173.868 16.6074 174.525 16.7864C175.182 16.9653 175.847 17.0548 176.521 17.0548C177.95 17.0548 178.664 16.6237 178.664 15.7616C178.664 15.4362 178.557 15.1678 178.344 14.9563C178.13 14.7449 177.835 14.5578 177.457 14.3951C177.079 14.2162 176.627 14.0535 176.102 13.9071C175.593 13.7607 175.034 13.598 174.427 13.4191C173.622 13.1751 172.924 12.9148 172.332 12.6383C171.741 12.3455 171.249 12.012 170.854 11.6378C170.477 11.2637 170.189 10.8326 169.992 10.3446C169.811 9.85659 169.721 9.28724 169.721 8.63656C169.721 7.7256 169.894 6.92038 170.238 6.22089C170.583 5.5214 171.051 4.93578 171.643 4.46404C172.234 3.97602 172.916 3.61002 173.687 3.36601C174.476 3.122 175.305 3 176.176 3C176.783 3 177.383 3.05693 177.974 3.1708C178.565 3.28467 179.132 3.43108 179.674 3.61002C180.216 3.78895 180.717 3.99229 181.177 4.22003C181.653 4.44777 182.088 4.67552 182.483 4.90326L180.709 8.22175ZM53 31.9961C53 30.955 53.1971 29.9221 53.5912 28.8973C53.9854 27.8562 54.5603 26.9289 55.3158 26.1156C56.0713 25.3022 56.991 24.6434 58.075 24.1391C59.159 23.6348 60.3908 23.3827 61.7705 23.3827C63.4129 23.3827 64.8336 23.7325 66.0325 24.4319C67.2479 25.1314 68.1512 26.0424 68.7425 27.1648L65.6383 29.3121C65.4412 28.8566 65.1867 28.4825 64.8746 28.1896C64.579 27.8806 64.2505 27.6366 63.8892 27.4576C63.5278 27.2624 63.1583 27.1323 62.7805 27.0672C62.4028 26.9859 62.0332 26.9452 61.6719 26.9452C60.9 26.9452 60.2266 27.0997 59.6517 27.4088C59.0769 27.7179 58.6006 28.1164 58.2228 28.6045C57.8451 29.0925 57.5659 29.6456 57.3852 30.2637C57.2045 30.8819 57.1142 31.5081 57.1142 32.1426C57.1142 32.8258 57.221 33.4846 57.4345 34.119C57.648 34.7534 57.9518 35.3146 58.346 35.8027C58.7566 36.2907 59.2411 36.6811 59.7996 36.9739C60.3744 37.2504 61.0149 37.3887 61.7212 37.3887C62.0825 37.3887 62.4521 37.348 62.8298 37.2667C63.224 37.1691 63.5935 37.0308 63.9384 36.8519C64.2998 36.6567 64.6282 36.4127 64.9239 36.1199C65.2195 35.8108 65.4577 35.4366 65.6383 34.9974L68.9396 36.9251C68.6768 37.5595 68.2826 38.1289 67.757 38.6331C67.2479 39.1374 66.6566 39.5604 65.9832 39.902C65.3098 40.2436 64.5954 40.5038 63.8399 40.6828C63.0844 40.8617 62.3453 40.9512 61.6226 40.9512C60.358 40.9512 59.1919 40.6991 58.1243 40.1948C57.0732 39.6742 56.1616 38.991 55.3897 38.1451C54.6342 37.2992 54.0429 36.3395 53.6159 35.2658C53.2053 34.1922 53 33.1023 53 31.9961ZM86.0242 23.4803V40.8048H81.9838V33.7042H75.0118V40.8048H70.9715V23.4803H75.0118V30.1905H81.9838V23.4803H86.0242ZM101.67 37.2911V40.8048H89.3764V23.4803H101.448V26.994H93.4168V30.3613H100.315V33.6066H93.4168V37.2911H101.67ZM117.92 40.8048V30.4345L114.126 37.9743H111.958L108.164 30.4345V40.8048H104.124V23.4803H108.509L113.042 32.533L117.6 23.4803H121.961V40.8048H117.92ZM125.321 40.8048V23.4803H129.361V40.8048H125.321ZM143.201 28.5557C143.152 28.4906 142.98 28.3686 142.684 28.1896C142.388 28.0107 142.019 27.8236 141.575 27.6284C141.132 27.4332 140.647 27.2624 140.122 27.116C139.596 26.9696 139.071 26.8964 138.545 26.8964C137.1 26.8964 136.377 27.3763 136.377 28.336C136.377 28.6289 136.451 28.8729 136.599 29.0681C136.763 29.2633 136.993 29.4422 137.289 29.6049C137.601 29.7513 137.987 29.8896 138.446 30.0197C138.906 30.1498 139.44 30.2962 140.048 30.4589C140.885 30.6866 141.641 30.9388 142.314 31.2153C142.988 31.4756 143.554 31.8091 144.014 32.2158C144.491 32.6062 144.852 33.086 145.098 33.6554C145.361 34.2247 145.492 34.908 145.492 35.7051C145.492 36.6811 145.304 37.5107 144.926 38.1939C144.564 38.8609 144.08 39.4058 143.472 39.8288C142.865 40.2354 142.167 40.5364 141.378 40.7316C140.59 40.9105 139.777 41 138.939 41C138.299 41 137.642 40.9512 136.968 40.8536C136.295 40.756 135.638 40.6177 134.997 40.4388C134.357 40.2436 133.733 40.0158 133.125 39.7556C132.534 39.4953 131.984 39.1944 131.474 38.8527L133.248 35.3634C133.314 35.4448 133.527 35.5993 133.889 35.827C134.25 36.0548 134.694 36.2825 135.219 36.5103C135.761 36.738 136.361 36.9413 137.018 37.1203C137.675 37.2992 138.34 37.3887 139.013 37.3887C140.442 37.3887 141.156 36.9576 141.156 36.0955C141.156 35.7701 141.05 35.5017 140.836 35.2902C140.623 35.0788 140.327 34.8917 139.949 34.729C139.572 34.5501 139.12 34.3874 138.594 34.241C138.085 34.0946 137.527 33.9319 136.919 33.753C136.114 33.509 135.416 33.2487 134.825 32.9722C134.234 32.6794 133.741 32.3459 133.347 31.9717C132.969 31.5976 132.682 31.1665 132.485 30.6785C132.304 30.1905 132.214 29.6211 132.214 28.9705C132.214 28.0595 132.386 27.2543 132.731 26.5548C133.076 25.8553 133.544 25.2697 134.135 24.7979C134.726 24.3099 135.408 23.9439 136.18 23.6999C136.968 23.4559 137.798 23.3339 138.668 23.3339C139.276 23.3339 139.875 23.3908 140.467 23.5047C141.058 23.6186 141.625 23.765 142.167 23.9439C142.709 24.1229 143.209 24.3262 143.669 24.5539C144.146 24.7817 144.581 25.0094 144.975 25.2372L143.201 28.5557ZM161.072 26.994H155.75V40.8048H151.71V26.994H146.364V23.4803H161.072V26.994ZM160.919 40.8048V36.8275H164.146V40.8048H160.919Z" fill="#1E272E"/>
<path d="M18.2754 0.90602C16.1798 1.88915 14.4686 3.66264 13.6033 5.72528C12.642 8.01925 12.892 24.7711 13.911 26.8719C15.6799 30.5345 18.4677 32 23.678 32H27.3694L27.2541 30.1687L27.1387 28.3374L23.6588 28.1446C17.2372 27.7974 16.8527 27.104 16.8142 16.0001C16.795 6.82408 17.0642 5.78311 19.7943 4.47228C24.0817 2.42891 27.3502 4.83853 27.7347 10.3132C28.0808 15.3057 29.6958 16.9639 34.5216 17.2531C43.2888 17.793 43.8271 28.1446 35.0792 28.1446H32.7143V30.0723V32H35.4252C41.097 32 44.9999 28.241 44.9999 22.747C45.0191 17.3691 41.097 13.4743 35.6559 13.4361C32.1183 13.3975 31.5992 12.9349 31.5992 9.69635C31.6184 3.97107 27.8309 0 22.3322 0C20.9286 0 19.5828 0.308432 18.2754 0.90602Z" fill="#26DE81"/>
<path d="M4.96638 14.036C-3.67239 18.5036 -0.317151 31.5642 9.45932 31.5446C13.0267 31.526 13.4123 31.9281 13.5859 35.8214C13.9522 44.4896 24.3265 48.2108 29.9378 41.6903C31.9625 39.3508 32.0975 38.4105 31.9625 28.1503L31.8468 18.8686L30.6705 17.2189C28.4337 14.0546 26.7947 13.2689 22.0704 13.1153L17.9631 13L18.0017 14.8413L18.0595 16.7013L21.4919 16.8931C27.8745 17.2571 28.2795 17.9479 28.318 28.9752C28.3373 38.1042 28.0674 39.1394 25.3292 40.4437C21.0098 42.476 17.6353 39.9447 17.2882 34.4213C16.9989 29.6464 15.3599 28.0163 10.5584 27.7286C1.76541 27.1914 1.22548 16.8931 9.99924 16.8931H12.371V14.9753V13.0575L9.57502 13.0771C7.37676 13.0957 6.39332 13.2875 4.96638 14.036Z" fill="#26DE81"/>
</svg>
