<svg width="247" height="62" viewBox="0 0 247 62" fill="none" xmlns="http://www.w3.org/2000/svg">
<path d="M92.0902 22.3477C92.0902 23.3685 91.8794 24.2562 91.4578 25.0107C91.0363 25.7652 90.4594 26.3977 89.7273 26.9081C88.9951 27.3963 88.1409 27.7736 87.1647 28.0399C86.1885 28.284 85.1568 28.406 84.0697 28.406H72.5548V4.77199H85.7004C86.5213 4.77199 87.2646 4.94952 87.9302 5.30459C88.5958 5.65965 89.1615 6.12567 89.6274 6.70265C90.0933 7.25744 90.4483 7.901 90.6924 8.63333C90.9586 9.34346 91.0917 10.0758 91.0917 10.8303C91.0917 11.9621 90.8033 13.0273 90.2265 14.0259C89.6718 15.0245 88.8287 15.779 87.6972 16.2894C89.0506 16.6889 90.1155 17.399 90.8921 18.4198C91.6908 19.4406 92.0902 20.7499 92.0902 22.3477ZM86.5324 21.2492C86.5324 20.5169 86.3216 19.8956 85.9001 19.3851C85.4785 18.8747 84.946 18.6195 84.3026 18.6195H78.0127V23.7791H84.0697C84.7796 23.7791 85.3676 23.5461 85.8335 23.08C86.2994 22.614 86.5324 22.0037 86.5324 21.2492ZM78.0127 9.43222V14.3255H83.3708C83.9698 14.3255 84.5023 14.1257 84.9682 13.7263C85.4341 13.3268 85.6671 12.7055 85.6671 11.8622C85.6671 11.0855 85.4563 10.4863 85.0348 10.0647C84.6354 9.64304 84.1473 9.43222 83.5705 9.43222H78.0127ZM95.3049 28.406V4.77199H105.954C107.064 4.77199 108.084 5.00499 109.016 5.47102C109.97 5.93704 110.791 6.54731 111.479 7.30182C112.167 8.05634 112.699 8.91072 113.076 9.86496C113.476 10.8192 113.675 11.7845 113.675 12.761C113.675 13.4933 113.587 14.2034 113.409 14.8913C113.232 15.5571 112.977 16.1896 112.644 16.7887C112.311 17.3879 111.9 17.9316 111.412 18.4198C110.946 18.8858 110.414 19.2853 109.815 19.6182L115.007 28.406H108.85L104.324 20.7832H100.763V28.406H95.3049ZM100.763 16.0231H105.755C106.398 16.0231 106.953 15.7235 107.419 15.1244C107.885 14.503 108.118 13.7152 108.118 12.761C108.118 11.7845 107.851 11.0078 107.319 10.4308C106.786 9.85386 106.21 9.56537 105.588 9.56537H100.763V16.0231ZM127.95 28.6057C126.197 28.6057 124.6 28.2618 123.158 27.5738C121.715 26.8859 120.484 25.9871 119.464 24.8776C118.443 23.7458 117.644 22.4587 117.067 21.0162C116.513 19.5738 116.235 18.0869 116.235 16.5557C116.235 15.0023 116.524 13.5044 117.101 12.0619C117.7 10.6195 118.521 9.35455 119.563 8.26717C120.628 7.15759 121.882 6.28101 123.324 5.63746C124.766 4.97171 126.341 4.63884 128.05 4.63884C129.802 4.63884 131.4 4.98281 132.842 5.67075C134.284 6.35869 135.515 7.26853 136.536 8.40031C137.556 9.53208 138.344 10.8192 138.898 12.2616C139.453 13.7041 139.73 15.1687 139.73 16.6556C139.73 18.209 139.431 19.7069 138.832 21.1494C138.255 22.5918 137.445 23.8678 136.402 24.9774C135.36 26.0648 134.117 26.9414 132.676 27.6071C131.234 28.2729 129.658 28.6057 127.95 28.6057ZM121.793 16.6223C121.793 17.5321 121.926 18.4198 122.192 19.2853C122.459 20.1286 122.847 20.8831 123.357 21.5488C123.89 22.2146 124.544 22.7472 125.321 23.1466C126.097 23.5461 126.985 23.7458 127.983 23.7458C129.026 23.7458 129.936 23.535 130.712 23.1133C131.489 22.6917 132.132 22.148 132.642 21.4823C133.153 20.7943 133.53 20.0287 133.774 19.1854C134.04 18.3199 134.173 17.4434 134.173 16.5557C134.173 15.6459 134.04 14.7693 133.774 13.926C133.508 13.0605 133.108 12.306 132.576 11.6625C132.043 10.9967 131.389 10.4752 130.612 10.098C129.858 9.69852 128.982 9.49879 127.983 9.49879C126.94 9.49879 126.031 9.70961 125.254 10.1312C124.5 10.5307 123.856 11.0633 123.324 11.729C122.814 12.3948 122.425 13.1604 122.159 14.0259C121.915 14.8692 121.793 15.7346 121.793 16.6223ZM159.784 9.56537H152.596V28.406H147.138V9.56537H139.916V4.77199H159.784V9.56537ZM182.784 4.77199V28.406H177.326V18.7194H167.908V28.406H162.45V4.77199H167.908V13.926H177.326V4.77199H182.784ZM203.919 23.6126V28.406H187.313V4.77199H203.62V9.56537H192.77V14.159H202.089V18.5862H192.77V23.6126H203.919ZM207.235 28.406V4.77199H217.884C218.994 4.77199 220.014 5.00499 220.946 5.47102C221.9 5.93704 222.721 6.54731 223.409 7.30182C224.097 8.05634 224.629 8.91072 225.006 9.86496C225.406 10.8192 225.605 11.7845 225.605 12.761C225.605 13.4933 225.517 14.2034 225.339 14.8913C225.162 15.5571 224.906 16.1896 224.574 16.7887C224.241 17.3879 223.83 17.9316 223.342 18.4198C222.876 18.8858 222.344 19.2853 221.745 19.6182L226.937 28.406H220.78L216.254 20.7832H212.693V28.406H207.235ZM212.693 16.0231H217.685C218.328 16.0231 218.883 15.7235 219.349 15.1244C219.815 14.503 220.048 13.7152 220.048 12.761C220.048 11.7845 219.781 11.0078 219.249 10.4308C218.716 9.85386 218.14 9.56537 217.518 9.56537H212.693V16.0231ZM243.707 11.6958C243.64 11.607 243.407 11.4406 243.008 11.1965C242.609 10.9523 242.109 10.6971 241.51 10.4308C240.911 10.1645 240.257 9.93153 239.547 9.73181C238.837 9.53208 238.127 9.43222 237.417 9.43222C235.465 9.43222 234.488 10.0869 234.488 11.3962C234.488 11.7956 234.588 12.1285 234.788 12.3948C235.01 12.6611 235.32 12.9052 235.72 13.1271C236.141 13.3268 236.663 13.5155 237.284 13.693C237.905 13.8705 238.626 14.0703 239.447 14.2922C240.579 14.6029 241.599 14.9468 242.509 15.3241C243.418 15.6791 244.184 16.1341 244.805 16.6889C245.449 17.2215 245.937 17.8761 246.269 18.6528C246.624 19.4295 246.802 20.3616 246.802 21.449C246.802 22.7805 246.547 23.9122 246.036 24.8443C245.548 25.7541 244.894 26.4975 244.073 27.0745C243.252 27.6293 242.309 28.0399 241.244 28.3062C240.179 28.5503 239.081 28.6723 237.949 28.6723C237.084 28.6723 236.197 28.6057 235.287 28.4726C234.377 28.3394 233.49 28.1508 232.625 27.9067C231.759 27.6404 230.916 27.3297 230.095 26.9747C229.297 26.6196 228.553 26.2091 227.866 25.743L230.262 20.9829C230.351 21.0939 230.639 21.3047 231.127 21.6154C231.615 21.9261 232.214 22.2368 232.924 22.5474C233.656 22.8581 234.466 23.1355 235.354 23.3796C236.241 23.6237 237.14 23.7458 238.049 23.7458C239.98 23.7458 240.945 23.1577 240.945 21.9816C240.945 21.5377 240.8 21.1716 240.512 20.8831C240.224 20.5946 239.824 20.3394 239.314 20.1175C238.804 19.8734 238.194 19.6514 237.484 19.4517C236.796 19.252 236.041 19.0301 235.22 18.786C234.133 18.4531 233.19 18.098 232.392 17.7208C231.593 17.3213 230.927 16.8664 230.395 16.356C229.885 15.8456 229.496 15.2575 229.23 14.5918C228.986 13.926 228.864 13.1493 228.864 12.2616C228.864 11.0189 229.097 9.92043 229.563 8.9662C230.029 8.01196 230.661 7.21306 231.46 6.5695C232.259 5.90375 233.179 5.40445 234.222 5.07158C235.287 4.7387 236.408 4.57227 237.583 4.57227C238.404 4.57227 239.214 4.64994 240.013 4.80528C240.812 4.96062 241.577 5.16034 242.309 5.40445C243.041 5.64856 243.718 5.92595 244.339 6.23663C244.983 6.54731 245.571 6.858 246.103 7.16868L243.707 11.6958ZM71.1903 44.1287C71.1903 42.7085 71.4565 41.2993 71.989 39.9013C72.5215 38.481 73.298 37.2161 74.3186 36.1065C75.3392 34.9969 76.5817 34.0982 78.046 33.4102C79.5103 32.7223 81.1743 32.3783 83.038 32.3783C85.2567 32.3783 87.1758 32.8554 88.7954 33.8097C90.4372 34.7639 91.6575 36.0066 92.4562 37.5379L88.2629 40.4671C87.9967 39.8458 87.6528 39.3354 87.2313 38.9359C86.8319 38.5143 86.3882 38.1814 85.9001 37.9373C85.412 37.671 84.9128 37.4935 84.4025 37.4047C83.8922 37.2937 83.393 37.2383 82.9049 37.2383C81.8621 37.2383 80.9524 37.4491 80.1759 37.8707C79.3994 38.2924 78.756 38.8361 78.2457 39.5018C77.7354 40.1676 77.3582 40.9221 77.1141 41.7654C76.8701 42.6086 76.7481 43.463 76.7481 44.3285C76.7481 45.2605 76.8923 46.1593 77.1807 47.0248C77.4691 47.8902 77.8796 48.6558 78.4121 49.3216C78.9667 49.9873 79.6212 50.5199 80.3756 50.9194C81.1521 51.2966 82.0174 51.4853 82.9714 51.4853C83.4595 51.4853 83.9587 51.4298 84.469 51.3188C85.0015 51.1857 85.5007 50.997 85.9666 50.7529C86.4547 50.4866 86.8985 50.1538 87.2978 49.7543C87.6972 49.3327 88.0189 48.8223 88.2629 48.2231L92.7225 50.8528C92.3675 51.7183 91.835 52.495 91.125 53.1829C90.4372 53.8708 89.6385 54.4478 88.7289 54.9139C87.8192 55.3799 86.8541 55.7349 85.8335 55.979C84.8129 56.2232 83.8145 56.3452 82.8383 56.3452C81.1299 56.3452 79.5547 56.0012 78.1125 55.3133C76.6926 54.6032 75.4612 53.6711 74.4185 52.5172C73.3979 51.3632 72.5992 50.0539 72.0223 48.5893C71.4676 47.1246 71.1903 45.6378 71.1903 44.1287ZM115.801 32.5115V56.1455H110.343V46.4589H100.925V56.1455H95.4672V32.5115H100.925V41.6655H110.343V32.5115H115.801ZM136.936 51.3521V56.1455H120.33V32.5115H136.637V37.3048H125.788V41.8985H135.106V46.3257H125.788V51.3521H136.936ZM158.889 56.1455V41.9984L153.764 52.2842H150.835L145.71 41.9984V56.1455H140.252V32.5115H146.176L152.299 44.8611L158.456 32.5115H164.347V56.1455H158.889ZM168.885 56.1455V32.5115H174.343V56.1455H168.885ZM193.039 39.4352C192.973 39.3465 192.74 39.18 192.341 38.9359C191.941 38.6918 191.442 38.4366 190.843 38.1703C190.244 37.904 189.589 37.671 188.879 37.4713C188.17 37.2716 187.46 37.1717 186.75 37.1717C184.797 37.1717 183.821 37.8263 183.821 39.1356C183.821 39.5351 183.921 39.868 184.12 40.1343C184.342 40.4006 184.653 40.6447 185.052 40.8666C185.474 41.0663 185.995 41.2549 186.616 41.4325C187.238 41.61 187.959 41.8097 188.78 42.0316C189.911 42.3423 190.932 42.6863 191.841 43.0636C192.751 43.4186 193.516 43.8736 194.138 44.4283C194.781 44.9609 195.269 45.6156 195.602 46.3923C195.957 47.169 196.135 48.101 196.135 49.1884C196.135 50.5199 195.879 51.6517 195.369 52.5837C194.881 53.4936 194.226 54.237 193.406 54.814C192.585 55.3688 191.642 55.7793 190.577 56.0456C189.512 56.2897 188.414 56.4118 187.282 56.4118C186.417 56.4118 185.529 56.3452 184.62 56.2121C183.71 56.0789 182.823 55.8903 181.957 55.6462C181.092 55.3799 180.249 55.0692 179.428 54.7141C178.629 54.3591 177.886 53.9485 177.198 53.4825L179.594 48.7224C179.683 48.8334 179.972 49.0442 180.46 49.3549C180.948 49.6655 181.547 49.9762 182.257 50.2869C182.989 50.5976 183.799 50.875 184.686 51.1191C185.574 51.3632 186.472 51.4853 187.382 51.4853C189.312 51.4853 190.277 50.8972 190.277 49.721C190.277 49.2772 190.133 48.911 189.845 48.6225C189.556 48.334 189.157 48.0789 188.647 47.8569C188.136 47.6128 187.526 47.3909 186.816 47.1912C186.128 46.9915 185.374 46.7696 184.553 46.5254C183.466 46.1926 182.523 45.8375 181.724 45.4602C180.926 45.0608 180.26 44.6059 179.727 44.0955C179.217 43.5851 178.829 42.997 178.563 42.3312C178.319 41.6655 178.197 40.8888 178.197 40.0011C178.197 38.7584 178.43 37.6599 178.896 36.7057C179.361 35.7514 179.994 34.9525 180.792 34.309C181.591 33.6432 182.512 33.1439 183.555 32.811C184.62 32.4782 185.74 32.3117 186.916 32.3117C187.737 32.3117 188.547 32.3894 189.345 32.5447C190.144 32.7001 190.91 32.8998 191.642 33.1439C192.374 33.388 193.051 33.6654 193.672 33.9761C194.315 34.2868 194.903 34.5975 195.436 34.9082L193.039 39.4352ZM217.18 37.3048H209.991V56.1455H204.534V37.3048H197.312V32.5115H217.18V37.3048ZM216.973 56.1455V50.7196H221.333V56.1455H216.973Z" fill="white"/>
<path d="M25.0326 1.87899C22.2212 3.19468 19.9257 5.56807 18.765 8.32842C17.4754 11.3983 17.8107 33.8167 19.1776 36.6281C21.5506 41.5296 25.2905 43.4908 32.2801 43.4908H37.2322L37.0774 41.04L36.9227 38.5893L32.2543 38.3313C23.6398 37.8666 23.1239 36.9388 23.0724 22.0787C23.0466 9.79889 23.4077 8.40582 27.0701 6.65157C32.8217 3.91702 37.2064 7.14172 37.7222 14.4683C38.1865 21.1495 40.353 23.3686 46.8268 23.7556C58.5879 24.4782 59.3101 38.3313 47.5748 38.3313H44.4023V40.9111V43.4908H48.039C55.6477 43.4908 60.8834 38.4603 60.8834 31.1079C60.9092 23.9109 55.6477 18.6987 48.3485 18.6475C43.6028 18.5959 42.9064 17.9768 42.9064 13.6427C42.9322 5.98083 37.8512 0.666504 30.4747 0.666504C28.5918 0.666504 26.7864 1.07927 25.0326 1.87899Z" fill="#26DE81"/>
<path d="M6.64281 20.0411C-4.91203 26.0509 -0.424207 43.6196 12.6524 43.5933C17.4239 43.5683 17.9397 44.1093 18.1719 49.3465C18.6619 61.0068 32.538 66.0124 40.0435 57.2411C42.7516 54.0941 42.9322 52.8292 42.7516 39.0274L42.5969 26.5418L41.0236 24.3227C38.0317 20.0661 35.8394 19.0092 29.5203 18.8025L24.0266 18.6475L24.0782 21.1243L24.1556 23.6264L28.7466 23.8844C37.2837 24.374 37.8254 25.3033 37.8769 40.137C37.9027 52.4172 37.5416 53.8098 33.8792 55.5643C28.1018 58.298 23.5882 54.893 23.1239 47.463C22.737 41.0399 20.5447 38.8471 14.1225 38.4601C2.36133 37.7375 1.63915 23.8844 13.3745 23.8844H16.547V21.3046V18.7248L12.8071 18.7512C9.86683 18.7762 8.55142 19.0341 6.64281 20.0411Z" fill="#26DE81"/>
</svg>
