<svg width="43" height="48" viewBox="0 0 43 48" fill="none" xmlns="http://www.w3.org/2000/svg">
<path d="M25.8459 9.83892C27.718 10.2486 29.4385 11.2756 30.7872 12.7884C32.1359 14.3012 33.0515 16.231 33.4167 18.3309L25.8459 9.83892ZM25.8459 1.2395C29.7353 1.72416 33.3623 3.67781 36.1312 6.7797C38.9001 9.88158 40.6464 13.9473 41.0834 18.3094L25.8459 1.2395ZM39.1667 35.4652V41.9148C39.1689 42.5135 39.0595 43.1062 38.8457 43.6547C38.6318 44.2033 38.3182 44.6958 37.9249 45.1006C37.5315 45.5053 37.0671 45.8135 36.5615 46.0053C36.0558 46.1971 35.52 46.2684 34.9884 46.2145C29.0905 45.4957 23.4251 43.2351 18.4476 39.6144C13.8166 36.3137 9.8903 31.9097 6.94757 26.7153C3.70836 21.1068 1.69254 14.7212 1.06341 8.07604C1.01551 7.48154 1.0785 6.88236 1.24837 6.31665C1.41823 5.75095 1.69125 5.23112 2.05004 4.79025C2.40883 4.34938 2.84553 3.99714 3.33234 3.75596C3.81915 3.51477 4.34539 3.38992 4.87757 3.38936H10.6276C11.5577 3.37909 12.4595 3.74855 13.1648 4.42888C13.87 5.10921 14.3307 6.05399 14.4609 7.08711C14.7036 9.15111 15.1537 11.1777 15.8026 13.1282C16.0604 13.8977 16.1162 14.734 15.9634 15.5379C15.8105 16.3419 15.4554 17.0799 14.9401 17.6644L12.5059 20.3947C15.2344 25.777 19.2074 30.2334 24.0059 33.2938L26.4401 30.5635C26.9612 29.9855 27.6191 29.5872 28.3359 29.4157C29.0526 29.2442 29.7982 29.3068 30.4842 29.5961C32.2232 30.3239 34.0299 30.8288 35.87 31.101C36.8011 31.2483 37.6514 31.7743 38.2592 32.579C38.8671 33.3837 39.19 34.4109 39.1667 35.4652Z" stroke="white" stroke-width="2" stroke-linecap="round" stroke-linejoin="round"/>
</svg>
